<svg width="299" height="84" viewBox="0 0 299 84" fill="none" xmlns="http://www.w3.org/2000/svg">
<path d="M3.234 20.096H23.226V24.38H8.526V32.654H22.344V36.938H8.526V45.716H23.226V50H3.234V20.096ZM27.8345 19.088H33.0425V50H27.8345V19.088ZM57.3497 39.668H42.7337C42.8457 41.936 43.4057 43.616 44.4137 44.708C45.4497 45.772 46.9757 46.304 48.9917 46.304C51.3157 46.304 53.4717 45.548 55.4597 44.036L56.9717 47.648C55.9637 48.46 54.7177 49.118 53.2337 49.622C51.7777 50.098 50.2937 50.336 48.7817 50.336C45.3097 50.336 42.5797 49.356 40.5917 47.396C38.6037 45.436 37.6097 42.748 37.6097 39.332C37.6097 37.176 38.0437 35.258 38.9117 33.578C39.7797 31.898 40.9977 30.596 42.5657 29.672C44.1337 28.72 45.9117 28.244 47.8997 28.244C50.8117 28.244 53.1077 29.196 54.7877 31.1C56.4957 32.976 57.3497 35.566 57.3497 38.87V39.668ZM48.0257 32.024C46.6257 32.024 45.4777 32.444 44.5817 33.284C43.7137 34.096 43.1537 35.286 42.9017 36.854H52.7717C52.6037 35.258 52.1137 34.054 51.3017 33.242C50.5177 32.43 49.4257 32.024 48.0257 32.024ZM71.4135 50.336C69.2015 50.336 67.2835 49.888 65.6595 48.992C64.0355 48.096 62.7895 46.836 61.9215 45.212C61.0535 43.56 60.6195 41.628 60.6195 39.416C60.6195 37.204 61.0675 35.258 61.9635 33.578C62.8875 31.898 64.1755 30.596 65.8275 29.672C67.5075 28.72 69.4395 28.244 71.6235 28.244C73.1355 28.244 74.5915 28.482 75.9915 28.958C77.4195 29.434 78.5535 30.092 79.3935 30.932L77.9235 34.628C77.0275 33.9 76.0755 33.354 75.0675 32.99C74.0595 32.598 73.0655 32.402 72.0855 32.402C70.1815 32.402 68.6975 33.004 67.6335 34.208C66.5695 35.384 66.0375 37.092 66.0375 39.332C66.0375 41.572 66.5555 43.28 67.5915 44.456C68.6555 45.632 70.1535 46.22 72.0855 46.22C73.0655 46.22 74.0595 46.024 75.0675 45.632C76.0755 45.24 77.0275 44.68 77.9235 43.952L79.3935 47.648C78.4975 48.488 77.3355 49.146 75.9075 49.622C74.4795 50.098 72.9815 50.336 71.4135 50.336ZM89.7195 32.738V42.23C89.7195 44.722 90.8815 45.968 93.2055 45.968C93.8495 45.968 94.5495 45.856 95.3055 45.632V49.79C94.3815 50.126 93.2615 50.294 91.9455 50.294C89.5375 50.294 87.6895 49.622 86.4015 48.278C85.1135 46.934 84.4695 45.002 84.4695 42.482V32.738H80.3955V28.79H84.4695V23.624L89.7195 21.86V28.79H95.3475V32.738H89.7195ZM98.9556 28.79H104.164V50H98.9556V28.79ZM104.458 19.172V24.338H98.6196V19.172H104.458ZM119.525 50.336C117.369 50.336 115.465 49.888 113.813 48.992C112.189 48.096 110.929 46.822 110.033 45.17C109.165 43.49 108.731 41.53 108.731 39.29C108.731 37.05 109.165 35.104 110.033 33.452C110.929 31.772 112.189 30.484 113.813 29.588C115.465 28.692 117.369 28.244 119.525 28.244C121.653 28.244 123.529 28.692 125.153 29.588C126.777 30.484 128.023 31.772 128.891 33.452C129.787 35.104 130.235 37.05 130.235 39.29C130.235 41.53 129.787 43.49 128.891 45.17C128.023 46.822 126.777 48.096 125.153 48.992C123.529 49.888 121.653 50.336 119.525 50.336ZM119.483 46.22C121.275 46.22 122.633 45.646 123.557 44.498C124.509 43.322 124.985 41.586 124.985 39.29C124.985 37.022 124.509 35.3 123.557 34.124C122.605 32.92 121.261 32.318 119.525 32.318C117.761 32.318 116.403 32.92 115.451 34.124C114.499 35.3 114.023 37.022 114.023 39.29C114.023 41.586 114.485 43.322 115.409 44.498C116.361 45.646 117.719 46.22 119.483 46.22ZM146.9 28.244C151.968 28.244 154.502 31.156 154.502 36.98V50H149.252V37.232C149.252 35.552 148.93 34.334 148.286 33.578C147.642 32.794 146.648 32.402 145.304 32.402C143.708 32.402 142.42 32.92 141.44 33.956C140.46 34.964 139.97 36.308 139.97 37.988V50H134.762V34.796C134.762 32.556 134.65 30.554 134.426 28.79H139.34L139.718 32.276C140.446 30.988 141.426 29.994 142.658 29.294C143.918 28.594 145.332 28.244 146.9 28.244ZM176.928 25.43V31.268H171.048V27.404C171.048 25.948 171.3 24.618 171.804 23.414C172.308 22.21 173.162 21.006 174.366 19.802L176.55 21.482C175.878 22.238 175.346 22.924 174.954 23.54C174.59 24.156 174.352 24.786 174.24 25.43H176.928Z" fill="black"/>
<path d="M202.421 45.59V50H183.983V45.59H190.535V26.312L184.445 29.966V25.136L192.761 20.096H195.911V45.59H202.421ZM216.097 19.718C219.877 19.718 222.789 21.006 224.833 23.582C226.905 26.13 227.941 29.77 227.941 34.502C227.941 37.806 227.451 40.648 226.471 43.028C225.491 45.408 224.077 47.228 222.229 48.488C220.409 49.748 218.239 50.378 215.719 50.378C213.927 50.378 212.177 50.084 210.469 49.496C208.789 48.88 207.333 48.012 206.101 46.892L207.907 42.944C210.567 45.016 213.101 46.052 215.509 46.052C217.721 46.052 219.429 45.114 220.633 43.238C221.865 41.334 222.509 38.618 222.565 35.09C221.921 36.378 220.941 37.4 219.625 38.156C218.337 38.912 216.867 39.29 215.215 39.29C213.451 39.29 211.869 38.884 210.469 38.072C209.097 37.26 208.019 36.126 207.235 34.67C206.451 33.214 206.059 31.548 206.059 29.672C206.059 27.768 206.479 26.06 207.319 24.548C208.187 23.036 209.377 21.86 210.889 21.02C212.429 20.152 214.165 19.718 216.097 19.718ZM216.391 34.964C217.959 34.964 219.233 34.46 220.213 33.452C221.193 32.444 221.683 31.128 221.683 29.504C221.683 27.88 221.193 26.564 220.213 25.556C219.233 24.52 217.959 24.002 216.391 24.002C214.823 24.002 213.563 24.506 212.611 25.514C211.687 26.522 211.225 27.852 211.225 29.504C211.225 31.156 211.687 32.486 212.611 33.494C213.563 34.474 214.823 34.964 216.391 34.964Z" fill="#9B51E0"/>
<rect x="238.5" y="4.5" width="57" height="57" stroke="#C3C0C0" stroke-width="7"/>
<path d="M259.4 15.95C261.533 14.65 264.017 14 266.85 14C268.917 14 270.75 14.35 272.35 15.05C273.95 15.75 275.183 16.7167 276.05 17.95C276.95 19.1833 277.4 20.6167 277.4 22.25C277.4 24.0167 276.983 25.5333 276.15 26.8C275.35 28.0667 274.133 29.5333 272.5 31.2C271.133 32.6 270.1 33.8 269.4 34.8C268.7 35.7667 268.267 36.8667 268.1 38.1L267.9 39.5H264.2V37.45C264.2 35.5833 264.533 34.0167 265.2 32.75C265.867 31.45 266.833 30.05 268.1 28.55C269.067 27.4167 269.783 26.4333 270.25 25.6C270.75 24.7667 271 23.8333 271 22.8C271 21.6333 270.583 20.7333 269.75 20.1C268.95 19.4333 267.833 19.1 266.4 19.1C264.067 19.1 261.733 19.8167 259.4 21.25V15.95ZM262.6 43H269.65V50H262.6V43Z" fill="#9B51E0"/>
<line x1="2" y1="80.5" x2="299" y2="80.5" stroke="#C3C0C0" stroke-width="7"/>
</svg>
